<svg width="147" height="16" viewBox="0 0 147 16" fill="none" xmlns="http://www.w3.org/2000/svg">
<g clip-path="url(#clip0_7_40)">
<path d="M3.95366 10.4912V15.4776H0.557556L0.557556 0.429138H8.79708C12.4793 0.429138 14.3642 2.81668 14.3642 5.43868C14.3642 8.06069 12.5028 10.4912 8.82063 10.4912H3.95366ZM8.86102 7.15916C10.1771 7.15916 10.9647 6.42936 10.9647 5.48161C10.9647 4.53716 10.1771 3.76112 8.86102 3.76112H3.95366V7.15916H8.86102Z" fill="white"/>
<path d="M25.9273 0C21.4575 0 17.819 3.56645 17.819 7.95517C17.819 12.3406 21.4541 15.9103 25.9273 15.9103C30.3971 15.9103 34.0356 12.3439 34.0356 7.95517C34.0322 3.56975 30.3971 0 25.9273 0ZM32.1776 7.08006H30.4005C30.3062 5.41902 29.9461 3.94291 29.3908 2.77391C30.8717 3.72827 31.9184 5.28033 32.1776 7.08006ZM25.0319 2.15968V7.08006H23.2447C23.4029 4.76187 24.167 2.93571 25.0319 2.15968ZM25.0319 8.83027V13.7506C24.1636 12.9746 23.3996 11.1485 23.2413 8.83027H25.0319ZM26.8192 13.7506V8.83027H28.6099C28.4517 11.1485 27.6842 12.9746 26.8192 13.7506ZM26.8192 7.08006V2.15968C27.6876 2.93571 28.4517 4.76187 28.6099 7.08006H26.8192ZM22.4605 2.7706C21.9051 3.93961 21.545 5.41572 21.4507 7.07676H19.6736C19.9362 5.28033 20.9796 3.72827 22.4605 2.7706ZM19.6736 8.83027H21.4507C21.545 10.4913 21.9051 11.9675 22.4605 13.1364C20.9796 12.1788 19.9362 10.6267 19.6736 8.83027ZM29.3908 13.1364C29.9461 11.9642 30.3062 10.488 30.4005 8.83027H32.1776C31.9184 10.6267 30.8717 12.1788 29.3908 13.1364Z" fill="white"/>
<path d="M45.5848 15.9103C40.1928 15.9103 38.0016 12.7269 38.0016 12.7269L40.5663 10.5772C40.5663 10.5772 42.4512 12.575 45.605 12.575C47.7288 12.575 49.0684 12.1227 49.0684 11.0924C49.0684 10.1049 47.9711 9.84406 46.6585 9.73839L44.0298 9.52374C40.7212 9.24305 38.4425 7.76033 38.4425 4.88076C38.4425 1.97806 41.0712 0 44.9049 0C49.792 0 51.9159 3.11734 51.9159 3.11734L49.2872 5.13833C49.2872 5.13833 47.9072 3.33199 44.9049 3.33199C42.8451 3.33199 41.8824 3.89007 41.8824 4.79489C41.8824 5.56763 42.6263 6.00022 44.0298 6.1059L46.6585 6.32054C50.0781 6.60124 52.5756 7.91224 52.5756 10.9206C52.5756 13.929 49.856 15.9103 45.5848 15.9103Z" fill="white"/>
<path d="M69.645 3.76112H64.4952V15.4776H61.0992V3.76112H55.973V0.429138H69.6483V3.76112H69.645Z" fill="white"/>
<path d="M88.2508 10.9867C86.9584 14.1271 84.2624 15.9103 80.7552 15.9103C76.0868 15.9103 72.6031 12.7071 72.6031 7.95517C72.6031 3.2032 76.2012 0 80.6474 0C84.1109 0 86.8272 1.7403 88.1195 4.83782L84.9658 6.14882C84.1782 4.42834 82.6636 3.33199 80.671 3.33199C77.9313 3.33199 76.0026 5.31005 76.0026 7.95517C76.0026 10.7059 77.9313 12.5783 80.671 12.5783C82.7948 12.5783 84.3532 11.3962 85.1206 9.63272L88.2508 10.9867Z" fill="white"/>
<path d="M104.645 15.4776L103.265 12.0367H96.1868L94.8271 15.4776H91.1011L97.0182 0.429138H102.454L108.371 15.4776H104.645ZM97.4793 8.70793H101.973L99.7378 2.88272L97.4793 8.70793Z" fill="white"/>
<path d="M122.724 15.4776L120.008 10.2732H115.494V15.4776H112.098V0.429138H120.446C124.128 0.429138 126.013 2.7077 126.013 5.32971C126.013 7.15586 125.113 8.8136 123.339 9.67219L126.561 15.4776H122.724ZM120.621 6.94452C121.937 6.94452 122.616 6.32039 122.616 5.37594C122.616 4.43149 121.937 3.76443 120.621 3.76443H115.494V6.94782H120.621V6.94452Z" fill="white"/>
<path d="M130.835 15.4776V0.429138H138.108C141.023 0.429138 145.624 2.16943 145.624 7.95501C145.624 13.7406 140.804 15.4809 137.89 15.4809H130.835V15.4776ZM142.205 7.95501C142.205 5.50473 140.474 3.76443 137.954 3.76443H134.228V12.1489H137.93C140.454 12.1456 142.205 10.4053 142.205 7.95501Z" fill="white"/>
</g>
<defs>
<clipPath id="clip0_7_40">
<rect width="146.182" height="16" fill="white"/>
</clipPath>
</defs>
</svg>
