<svg width="24" height="24" viewBox="0 0 24 24" fill="none" xmlns="http://www.w3.org/2000/svg">
    <path d="M3.03145 6.86731C1.29895 8.81483 0.162047 11.326 0 14.0916H2.84812C3.00089 12.1 3.79087 10.2872 5.01937 8.85523L3.03145 6.86731Z"
          fill="white"/>
    <path d="M11.6862 15.5713C11.4465 15.6923 11.2969 15.9335 11.2969 16.2009C11.2976 16.7915 12.1305 17.1121 12.5246 16.6692L14.9821 13.922L11.6862 15.5713Z"
          fill="white"/>
    <path d="M4.0257 5.87303L6.01362 7.86095C7.44555 6.63245 9.30523 5.84246 11.2969 5.6897V2.8772C8.53123 3.0392 5.97326 4.14053 4.0257 5.87303Z"
          fill="white"/>
    <path d="M12.7031 2.8772V5.6897C14.6947 5.84246 16.5544 6.63245 17.9864 7.86095L19.9743 5.87303C18.0267 4.14053 15.4688 3.0392 12.7031 2.8772Z"
          fill="white"/>
    <path d="M20.9686 6.86731L18.9807 8.85523C20.2092 10.2871 20.9991 12.1 21.1519 14.0916H24C23.838 11.326 22.7011 8.81483 20.9686 6.86731Z"
          fill="white"/>
    <path d="M21.128 15.4978C21.0667 16.2952 20.9339 17.0836 20.667 17.8406C20.538 18.2051 20.1402 18.3993 19.7702 18.2705C19.4036 18.1414 19.2113 17.7397 19.3404 17.3737C19.6329 16.5435 19.7812 15.6763 19.7812 14.7946C19.7812 12.6624 18.914 10.729 17.5136 9.32849C17.5135 9.3284 17.5133 9.3283 17.5133 9.3283C17.5133 9.3283 17.5131 9.32788 17.513 9.32779C16.1125 7.92749 14.1322 7.0603 12 7.0603C9.8678 7.0603 7.88752 7.92754 6.48698 9.32788C6.48689 9.32797 6.4868 9.32821 6.4868 9.32821C6.4868 9.32821 6.48637 9.32844 6.48628 9.32854C5.08598 10.729 4.21875 12.6625 4.21875 14.7947C4.21875 15.6763 4.36706 16.5436 4.65956 17.3737C4.78866 17.7397 4.59637 18.1414 4.22972 18.2705C3.86648 18.3989 3.46275 18.2067 3.33295 17.8407C3.06609 17.0836 2.93325 16.2953 2.87194 15.4979H0C0.100594 17.215 0.548438 18.6683 1.17689 19.9727C1.51336 20.671 2.25216 21.1229 3.05897 21.1229H20.9403C21.7478 21.1229 22.4866 20.671 22.8238 19.972C23.4443 18.6803 23.9033 17.1475 24 15.4979H21.128V15.4978ZM18.5343 12.1126L13.5724 17.6072C12.2951 19.0359 9.89062 18.1421 9.89062 16.2009C9.89062 15.3982 10.3371 14.6758 11.0549 14.3151C11.0558 14.3147 11.0563 14.3138 11.0572 14.3134L17.6959 11.0147C17.6982 11.0136 17.7006 11.014 17.7029 11.0128C18.383 10.6813 19.0524 11.5169 18.5343 12.1126Z"
          fill="white"/>
</svg>
