<svg width="22" height="24" viewBox="0 0 22 24" fill="none" xmlns="http://www.w3.org/2000/svg">
    <path d="M16.4166 13.9391C16.0024 13.9391 15.6666 14.2748 15.6666 14.6891V17.6168C15.6666 18.1822 15.2066 18.6422 14.6411 18.6422H10.7084V6.92597C10.7084 5.99934 10.2481 5.20223 9.44565 4.73887L3.83574 1.5H14.6411C15.2066 1.5 15.6666 1.95998 15.6666 2.52544V5.86486C15.6666 6.27909 16.0024 6.61486 16.4166 6.61486C16.8308 6.61486 17.1666 6.27909 17.1666 5.86486V2.52544C17.1666 1.13292 16.0336 0 14.6411 0H2.81218C1.41966 0 0.286743 1.13292 0.286743 2.52544V18.3671C0.286743 19.2938 0.746962 20.0909 1.54946 20.5543L6.92021 23.655C7.32151 23.8867 7.7522 24.0025 8.18293 24.0025C8.61362 24.0024 9.04445 23.8866 9.4456 23.655C10.2481 23.1917 10.7083 22.3946 10.7083 21.468V20.1422H14.6411C16.0336 20.1422 17.1665 19.0093 17.1665 17.6168V14.6891C17.1666 14.2748 16.8308 13.9391 16.4166 13.9391ZM9.20837 21.468C9.20837 21.8498 9.02631 22.1651 8.69565 22.356C8.36504 22.5468 8.00087 22.5468 7.67026 22.356L2.29946 19.2552C1.96881 19.0643 1.78674 18.7489 1.78674 18.3671V2.52544C1.78674 2.3745 1.81951 2.23106 1.87834 2.10192L8.69565 6.03792C9.02631 6.2288 9.20837 6.54422 9.20837 6.92597V21.468ZM21.4936 10.6014L19.0565 13.0386C18.91 13.185 18.7181 13.2583 18.5262 13.2583C18.3343 13.2583 18.1423 13.185 17.9959 13.0386C17.703 12.7457 17.703 12.2708 17.9959 11.9779L19.1527 10.8211H12.2621C11.8479 10.8211 11.5121 10.4853 11.5121 10.0711C11.5121 9.65686 11.8479 9.32109 12.2621 9.32109H19.1527L17.9959 8.16427C17.703 7.87139 17.703 7.3965 17.9959 7.10363C18.2888 6.8107 18.7636 6.8107 19.0565 7.10363L21.4936 9.54075C21.7865 9.83367 21.7865 10.3086 21.4936 10.6014Z"
          fill="white"/>
</svg>
