<svg width="24" height="24" viewBox="0 0 24 24" fill="none" xmlns="http://www.w3.org/2000/svg">
<g clip-path="url(#clip0_18_2903)">
<path d="M12 13.7041L9.38325 11.0873L10.3815 10.0891L12 11.7076L14.8437 8.8639C14.0914 8.18121 13.0934 7.76465 12 7.76465C9.66466 7.76465 7.76471 9.6646 7.76471 11.9999C7.76471 14.3353 9.66466 16.2352 12 16.2352C14.3353 16.2352 16.2353 14.3353 16.2353 11.9999C16.2353 11.2696 16.0495 10.5818 15.7226 9.98145L12 13.7041Z" fill="white"/>
<path d="M20.4706 4.23529C18.5245 4.23529 16.9412 2.652 16.9412 0.705882V0H7.05885V0.705882C7.05885 2.652 5.47556 4.23529 3.52944 4.23529H2.11768V10.8696C2.11768 13.8217 3.04473 16.6373 4.79857 19.0119C7.70897 22.9525 11.8839 23.9443 12 24C12.1731 23.917 16.2297 23.0356 19.2015 19.0119C20.9554 16.6373 21.8824 13.8217 21.8824 10.8696V4.23529H20.4706ZM16.752 8.95209C17.3182 9.83191 17.6471 10.8783 17.6471 12C17.6471 15.1138 15.1138 17.6471 12 17.6471C8.88619 17.6471 6.35297 15.1138 6.35297 12C6.35297 8.88621 8.88619 6.35294 12 6.35294C13.4827 6.35294 14.8335 6.92762 15.8421 7.86555L17.148 6.55972L18.1462 7.55798L16.752 8.95209Z" fill="white"/>
</g>
<defs>
<clipPath id="clip0_18_2903">
<rect width="24" height="24" fill="white"/>
</clipPath>
</defs>
</svg>
