<svg width="24" height="24" viewBox="0 0 24 24" fill="none" xmlns="http://www.w3.org/2000/svg">
    <g clip-path="url(#clip0_12_172)">
        <path d="M20.4591 4.22954C18.5156 4.22954 16.9345 2.6484 16.9345 0.704923V0H7.06557V0.704923C7.06557 2.6484 5.48442 4.22954 3.54095 4.22954H2.1311V10.8548C2.1311 16.808 5.98981 22.1507 11.7927 23.9362L12 24L12.2073 23.9362C17.8971 22.1855 21.8689 16.9263 21.8689 10.8548V4.22954H20.4591ZM20.4591 10.8548C20.4591 16.2058 17.0692 20.8675 12 22.523C6.93088 20.8674 3.54095 16.2058 3.54095 10.8548V5.63938C6.02251 5.63938 8.08211 3.79798 8.42522 1.40985H15.5749C15.918 3.79798 17.9776 5.63938 20.4592 5.63938V10.8548H20.4591Z"
              fill="white"/>
        <path d="M12 6.3443C8.89044 6.3443 6.36066 8.87413 6.36066 11.9837C6.36066 15.0932 8.89044 17.6231 12 17.6231C15.1096 17.6231 17.6394 15.0932 17.6394 11.9837C17.6394 10.8635 17.311 9.81854 16.7455 8.93997L18.1379 7.54765L17.141 6.55075L15.8369 7.85481C14.8296 6.9182 13.4807 6.3443 12 6.3443ZM12 16.2132C9.66787 16.2132 7.7705 14.3159 7.7705 11.9837C7.7705 9.65152 9.66787 7.75415 12 7.75415C13.092 7.75415 14.0886 8.17014 14.8398 8.8519L12 11.6917L10.3837 10.0754L9.3868 11.0723L12 13.6855L15.7175 9.96798C16.0439 10.5675 16.2295 11.2544 16.2295 11.9837C16.2296 14.3159 14.3322 16.2132 12 16.2132Z"
              fill="white"/>
    </g>
    <defs>
        <clipPath id="clip0_12_172">
            <rect width="24" height="24" fill="white"/>
        </clipPath>
    </defs>
</svg>
