<svg width="24" height="24" viewBox="0 0 24 24" fill="none" xmlns="http://www.w3.org/2000/svg">
    <path fill-rule="evenodd" clip-rule="evenodd"
          d="M18.0933 1.33331H5.77331C5.36665 1.33331 4.97998 1.49331 4.69331 1.77998C3.95998 2.51331 2.51331 3.95998 1.77998 4.69331C1.49331 4.97998 1.33331 5.37331 1.33331 5.77331V21.14C1.33331 21.98 2.01998 22.6666 2.85998 22.6666H13.54C12.1333 21.48 11.24 19.6933 11.24 17.7133C11.24 14.14 14.14 11.24 17.7133 11.24C18.3733 11.24 19.0133 11.34 19.62 11.52V2.85998C19.62 2.01331 18.94 1.33331 18.0933 1.33331ZM8.95331 15.8066H5.13998C4.71998 15.8066 4.37998 15.4666 4.37998 15.0466C4.37998 14.6266 4.71998 14.2866 5.13998 14.2866H8.94665C9.36665 14.2866 9.70665 14.6266 9.70665 15.0466C9.70665 15.4666 9.36665 15.8066 8.94665 15.8066H8.95331ZM8.95331 12H5.13998C4.71998 12 4.37998 11.66 4.37998 11.24C4.37998 10.82 4.71998 10.48 5.13998 10.48H8.94665C9.36665 10.48 9.70665 10.82 9.70665 11.24C9.70665 11.66 9.36665 12 8.94665 12H8.95331ZM15.8133 8.19331H5.13998C4.71998 8.19331 4.37998 7.85331 4.37998 7.43331C4.37998 7.01331 4.71998 6.67331 5.13998 6.67331H15.8066C16.2266 6.67331 16.5666 7.01331 16.5666 7.43331C16.5666 7.85331 16.2266 8.19331 15.8066 8.19331H15.8133Z"
          fill="white"/>
    <path fill-rule="evenodd" clip-rule="evenodd"
          d="M19.62 13.14C19.0333 12.8933 18.3933 12.76 17.7133 12.76C14.98 12.76 12.76 14.98 12.76 17.7133C12.7533 20.46 15.0133 22.6733 17.7133 22.6667C20.4466 22.6667 22.6666 20.4467 22.6666 17.7133C22.6666 15.6533 21.4066 13.8867 19.62 13.14ZM18.68 18.84C18.9666 19.1467 18.9533 19.6267 18.6466 19.9133C18.34 20.2 17.86 20.1867 17.5666 19.88L16.02 18.2267C15.7466 17.9333 15.7466 17.48 16.02 17.1867L17.5666 15.5333C17.8533 15.2267 18.3333 15.2133 18.6466 15.5C18.9533 15.7867 18.9666 16.2733 18.68 16.5733L17.62 17.7067L18.68 18.84Z"
          fill="white"/>
</svg>
