<svg width="24" height="24" viewBox="0 0 24 24" fill="none" xmlns="http://www.w3.org/2000/svg">
<path d="M10.58 22.6667H3.46665C2.29331 22.6667 1.33331 21.7067 1.33331 20.5333V6.18668C1.33331 5.62668 1.55998 5.07334 1.95998 4.68001L4.67998 1.96001C5.07998 1.56001 5.62665 1.33334 6.18665 1.33334H17.6866C18.2466 1.33334 18.8 1.56001 19.1933 1.96001C19.5933 2.36001 19.82 2.90668 19.82 3.46668V9.86668C19.82 10.26 19.5 10.58 19.1066 10.58C18.7133 10.58 18.3933 10.26 18.3933 9.86668V3.46668C18.3933 3.28001 18.32 3.10001 18.1866 2.96668C18.0533 2.83334 17.8733 2.76001 17.6866 2.76001H6.18665C5.99998 2.76001 5.81998 2.83334 5.68665 2.96668L2.96665 5.68668C2.83331 5.82001 2.75998 6.00001 2.75998 6.18668V20.5333C2.75998 20.9267 3.07998 21.2467 3.47331 21.2467H10.58C10.9733 21.2467 11.2933 21.5667 11.2933 21.96C11.2933 22.3533 10.9733 22.6733 10.58 22.6733V22.6667Z" fill="white"/>
<path d="M15.5533 8.44666H5.59999C5.20666 8.44666 4.88666 8.12666 4.88666 7.73332C4.88666 7.33999 5.20666 7.01999 5.59999 7.01999H15.5533C15.9467 7.01999 16.2667 7.33999 16.2667 7.73332C16.2667 8.12666 15.9467 8.44666 15.5533 8.44666Z" fill="white"/>
<path d="M9.86666 12H5.59999C5.20666 12 4.88666 11.68 4.88666 11.2867C4.88666 10.8933 5.20666 10.5733 5.59999 10.5733H9.86666C10.26 10.5733 10.58 10.8933 10.58 11.2867C10.58 11.68 10.26 12 9.86666 12Z" fill="white"/>
<path d="M9.86666 15.5533H5.59999C5.20666 15.5533 4.88666 15.2333 4.88666 14.84C4.88666 14.4467 5.20666 14.1267 5.59999 14.1267H9.86666C10.26 14.1267 10.58 14.4467 10.58 14.84C10.58 15.2333 10.26 15.5533 9.86666 15.5533Z" fill="white"/>
<path d="M17.3333 22.6667C14.3933 22.6667 12 20.2733 12 17.3333C12 14.3933 14.3933 12 17.3333 12C20.2733 12 22.6667 14.3933 22.6667 17.3333C22.6667 20.2733 20.2733 22.6667 17.3333 22.6667ZM17.3333 13.42C15.18 13.42 13.42 15.1733 13.42 17.3333C13.42 19.4933 15.1733 21.2467 17.3333 21.2467C19.4933 21.2467 21.2467 19.4933 21.2467 17.3333C21.2467 15.1733 19.4933 13.42 17.3333 13.42Z" fill="white"/>
<path d="M17.72 19.5867C17.5334 19.5867 17.34 19.5133 17.2 19.36L15.7534 17.82C15.5 17.5467 15.5 17.12 15.7534 16.8467L17.2 15.3067C17.4667 15.02 17.92 15.0067 18.2067 15.2733C18.4934 15.54 18.5067 15.9933 18.24 16.28L17.2534 17.3333L18.24 18.3867C18.5067 18.6733 18.4934 19.12 18.2067 19.3933C18.0667 19.52 17.8934 19.5867 17.72 19.5867Z" fill="white"/>
</svg>
